<?xml version="1.0" encoding="UTF-8"?>
<svg version="1.1" xmlns="http://www.w3.org/2000/svg" width="24" height="24">
<path d="M0 0 C2.64 0 5.28 0 8 0 C8 1.98 8 3.96 8 6 C8.804375 6.2475 9.60875 6.495 10.4375 6.75 C13 8 13 8 13.8125 10.125 C13.874375 10.74375 13.93625 11.3625 14 12 C14.66 12 15.32 12 16 12 C16 13.98 16 15.96 16 18 C13.69 18 11.38 18 9 18 C9 16.02 9 14.04 9 12 C9.99 12 10.98 12 12 12 C11.67 11.34 11.34 10.68 11 10 C7.97065509 9.34227572 7.97065509 9.34227572 5 9 C5 9.99 5 10.98 5 12 C5.99 12 6.98 12 8 12 C8 13.98 8 15.96 8 18 C5.36 18 2.72 18 0 18 C0 16.02 0 14.04 0 12 C0.99 12 1.98 12 3 12 C3 11.01 3 10.02 3 9 C0.02934491 9.34227572 0.02934491 9.34227572 -3 10 C-3.33 10.66 -3.66 11.32 -4 12 C-3.01 12 -2.02 12 -1 12 C-1 13.98 -1 15.96 -1 18 C-3.31 18 -5.62 18 -8 18 C-8 16.02 -8 14.04 -8 12 C-7.34 12 -6.68 12 -6 12 C-5.9071875 11.071875 -5.9071875 11.071875 -5.8125 10.125 C-5 8 -5 8 -2.4375 6.75 C-1.633125 6.5025 -0.82875 6.255 0 6 C0 4.02 0 2.04 0 0 Z M2 2 C2 2.66 2 3.32 2 4 C3.32 4 4.64 4 6 4 C6 3.34 6 2.68 6 2 C4.68 2 3.36 2 2 2 Z M-7 14 C-7 14.66 -7 15.32 -7 16 C-5.68 16 -4.36 16 -3 16 C-3 15.34 -3 14.68 -3 14 C-4.32 14 -5.64 14 -7 14 Z M2 14 C2 14.66 2 15.32 2 16 C3.32 16 4.64 16 6 16 C6 15.34 6 14.68 6 14 C4.68 14 3.36 14 2 14 Z M11 14 C11 14.66 11 15.32 11 16 C12.32 16 13.64 16 15 16 C15 15.34 15 14.68 15 14 C13.68 14 12.36 14 11 14 Z " fill="#969696" transform="translate(8,3)"/>
</svg>
