<?xml version="1.0" encoding="UTF-8"?>
<svg version="1.1" xmlns="http://www.w3.org/2000/svg" width="24" height="24">
<path d="M0 0 C0.66 0 1.32 0 2 0 C2 0.66 2 1.32 2 2 C2.66 2 3.32 2 4 2 C4 1.34 4 0.68 4 0 C4.66 0 5.32 0 6 0 C6 0.66 6 1.32 6 2 C6.66 2 7.32 2 8 2 C8 1.34 8 0.68 8 0 C8.66 0 9.32 0 10 0 C10 0.66 10 1.32 10 2 C10.66 2 11.32 2 12 2 C12 1.34 12 0.68 12 0 C12.66 0 13.32 0 14 0 C14 0.66 14 1.32 14 2 C14.66 2 15.32 2 16 2 C16 1.34 16 0.68 16 0 C16.66 0 17.32 0 18 0 C18 0.66 18 1.32 18 2 C18.66 2 19.32 2 20 2 C20 6.62 20 11.24 20 16 C19.34 16 18.68 16 18 16 C18 16.66 18 17.32 18 18 C17.34 18 16.68 18 16 18 C16 17.34 16 16.68 16 16 C15.34 16 14.68 16 14 16 C14 16.66 14 17.32 14 18 C13.34 18 12.68 18 12 18 C12 17.34 12 16.68 12 16 C11.34 16 10.68 16 10 16 C10 16.66 10 17.32 10 18 C9.34 18 8.68 18 8 18 C8 17.34 8 16.68 8 16 C7.34 16 6.68 16 6 16 C6 16.66 6 17.32 6 18 C5.34 18 4.68 18 4 18 C4 17.34 4 16.68 4 16 C3.34 16 2.68 16 2 16 C2 16.66 2 17.32 2 18 C1.34 18 0.68 18 0 18 C0 17.34 0 16.68 0 16 C-0.66 16 -1.32 16 -2 16 C-2 11.38 -2 6.76 -2 2 C-1.34 2 -0.68 2 0 2 C0 1.34 0 0.68 0 0 Z " fill="#969696" transform="translate(3,3)"/>
<path d="M0 0 C0.66 0 1.32 0 2 0 C2 0.66 2 1.32 2 2 C2.66 2 3.32 2 4 2 C4 1.34 4 0.68 4 0 C4.66 0 5.32 0 6 0 C6 0.66 6 1.32 6 2 C6.66 2 7.32 2 8 2 C8 1.34 8 0.68 8 0 C8.66 0 9.32 0 10 0 C10 0.66 10 1.32 10 2 C10.66 2 11.32 2 12 2 C12 1.34 12 0.68 12 0 C12.66 0 13.32 0 14 0 C14 0.66 14 1.32 14 2 C14.66 2 15.32 2 16 2 C16 1.34 16 0.68 16 0 C16.66 0 17.32 0 18 0 C18 0.66 18 1.32 18 2 C18.66 2 19.32 2 20 2 C20 6.62 20 11.24 20 16 C19.34 16 18.68 16 18 16 C18 16.66 18 17.32 18 18 C17.34 18 16.68 18 16 18 C16 17.34 16 16.68 16 16 C15.34 16 14.68 16 14 16 C14 16.66 14 17.32 14 18 C13.34 18 12.68 18 12 18 C12 17.34 12 16.68 12 16 C11.34 16 10.68 16 10 16 C10 16.66 10 17.32 10 18 C9.34 18 8.68 18 8 18 C8 17.34 8 16.68 8 16 C7.34 16 6.68 16 6 16 C6 16.66 6 17.32 6 18 C5.34 18 4.68 18 4 18 C4 17.34 4 16.68 4 16 C3.34 16 2.68 16 2 16 C2 16.66 2 17.32 2 18 C1.34 18 0.68 18 0 18 C0 17.34 0 16.68 0 16 C-0.66 16 -1.32 16 -2 16 C-2 11.38 -2 6.76 -2 2 C-1.34 2 -0.68 2 0 2 C0 1.34 0 0.68 0 0 Z M-1 3 C-1 6.63 -1 10.26 -1 14 C5.6 14 12.2 14 19 14 C19 10.37 19 6.74 19 3 C12.4 3 5.8 3 -1 3 Z " fill="#969696" transform="translate(3,3)"/>
<path d="M0 0 C0.33 0 0.66 0 1 0 C1 1.65 1 3.3 1 5 C1.99 5 2.98 5 4 5 C4.33 3.35 4.66 1.7 5 0 C11.15234375 -0.09765625 11.15234375 -0.09765625 13 0 C14 1 14 1 14.125 3.5 C14 6 14 6 13 7 C14.32 7.66 15.64 8.32 17 9 C10.4 9 3.8 9 -3 9 C-2.01 8.34 -1.02 7.68 0 7 C0.25015873 3.41642759 0.25015873 3.41642759 0 0 Z " fill="#A9A9A9" transform="translate(5,8)"/>
<path d="M0 0 C0.721875 0.00257813 1.44375 0.00515625 2.1875 0.0078125 C2.909375 0.00523437 3.63125 0.00265625 4.375 0 C6.1875 0.1328125 6.1875 0.1328125 7.1875 1.1328125 C7.22813832 2.79898365 7.230221 4.46669345 7.1875 6.1328125 C5.8675 6.4628125 4.5475 6.7928125 3.1875 7.1328125 C2.8575 5.4828125 2.5275 3.8328125 2.1875 2.1328125 C1.1975 1.8028125 0.2075 1.4728125 -0.8125 1.1328125 C-0.8125 2.4528125 -0.8125 3.7728125 -0.8125 5.1328125 C0.1775 5.4628125 1.1675 5.7928125 2.1875 6.1328125 C0.8675 6.1328125 -0.4525 6.1328125 -1.8125 6.1328125 C-2.19468767 4.47666593 -2.52645102 2.80824226 -2.8125 1.1328125 C-1.8125 0.1328125 -1.8125 0.1328125 0 0 Z " fill="#696969" transform="translate(11.8125,7.8671875)"/>
</svg>
