<?xml version="1.0" encoding="UTF-8"?>
<svg version="1.1" xmlns="http://www.w3.org/2000/svg" width="24" height="24">
<path d="M0 0 C0.78890625 -0.00386719 1.5778125 -0.00773438 2.390625 -0.01171875 C3.21046875 -0.00011719 4.0303125 0.01148437 4.875 0.0234375 C6.10476563 0.00603516 6.10476563 0.00603516 7.359375 -0.01171875 C8.54273438 -0.00591797 8.54273438 -0.00591797 9.75 0 C10.46929688 0.00338379 11.18859375 0.00676758 11.9296875 0.01025391 C14.47587878 0.51834177 15.35124323 1.31450194 16.875 3.3984375 C17.26318359 5.34375 17.26318359 5.34375 17.2734375 7.5234375 C17.27923828 8.70679688 17.27923828 8.70679688 17.28515625 9.9140625 C17.27355469 10.73390625 17.26195313 11.55375 17.25 12.3984375 C17.26160156 13.21828125 17.27320312 14.038125 17.28515625 14.8828125 C17.28128906 15.67171875 17.27742188 16.460625 17.2734375 17.2734375 C17.26836182 18.35238281 17.26836182 18.35238281 17.26318359 19.453125 C16.75509573 21.99931628 15.95893556 22.87468073 13.875 24.3984375 C11.9296875 24.78662109 11.9296875 24.78662109 9.75 24.796875 C8.96109375 24.80074219 8.1721875 24.80460937 7.359375 24.80859375 C6.53953125 24.79699219 5.7196875 24.78539063 4.875 24.7734375 C3.64523437 24.79083984 3.64523437 24.79083984 2.390625 24.80859375 C1.20726562 24.80279297 1.20726562 24.80279297 0 24.796875 C-0.71929688 24.79349121 -1.43859375 24.79010742 -2.1796875 24.78662109 C-4.72587878 24.27853323 -5.60124323 23.48237306 -7.125 21.3984375 C-7.51318359 19.453125 -7.51318359 19.453125 -7.5234375 17.2734375 C-7.52730469 16.48453125 -7.53117188 15.695625 -7.53515625 14.8828125 C-7.52355469 14.06296875 -7.51195312 13.243125 -7.5 12.3984375 C-7.51160156 11.57859375 -7.52320313 10.75875 -7.53515625 9.9140625 C-7.52935547 8.73070312 -7.52935547 8.73070312 -7.5234375 7.5234375 C-7.52005371 6.80414062 -7.51666992 6.08484375 -7.51318359 5.34375 C-6.66386947 1.0875645 -4.04682146 0.01903747 0 0 Z M-4.125 3.3984375 C-4.125 6.0384375 -4.125 8.6784375 -4.125 11.3984375 C-1.485 11.3984375 1.155 11.3984375 3.875 11.3984375 C3.875 8.7584375 3.875 6.1184375 3.875 3.3984375 C1.235 3.3984375 -1.405 3.3984375 -4.125 3.3984375 Z M5.875 3.3984375 C5.875 6.0384375 5.875 8.6784375 5.875 11.3984375 C8.515 11.3984375 11.155 11.3984375 13.875 11.3984375 C13.875 8.7584375 13.875 6.1184375 13.875 3.3984375 C11.235 3.3984375 8.595 3.3984375 5.875 3.3984375 Z M-4.125 13.3984375 C-4.125 16.0384375 -4.125 18.6784375 -4.125 21.3984375 C-1.485 21.3984375 1.155 21.3984375 3.875 21.3984375 C3.875 18.7584375 3.875 16.1184375 3.875 13.3984375 C1.235 13.3984375 -1.405 13.3984375 -4.125 13.3984375 Z M5.875 13.3984375 C5.875 16.0384375 5.875 18.6784375 5.875 21.3984375 C8.515 21.3984375 11.155 21.3984375 13.875 21.3984375 C13.875 18.7584375 13.875 16.1184375 13.875 13.3984375 C11.235 13.3984375 8.595 13.3984375 5.875 13.3984375 Z " fill="#969696" transform="translate(7.125,-0.3984375)"/>
<path d="M0 0 C1.65 0 3.3 0 5 0 C5 1.65 5 3.3 5 5 C3.35 5 1.7 5 0 5 C0 3.35 0 1.7 0 0 Z " fill="#969696" transform="translate(4,15)"/>
<path d="M0 0 C0.66 0 1.32 0 2 0 C2 0.66 2 1.32 2 2 C2.66 2 3.32 2 4 2 C4 2.66 4 3.32 4 4 C3.34 4 2.68 4 2 4 C2 4.66 2 5.32 2 6 C1.34 6 0.68 6 0 6 C0 5.34 0 4.68 0 4 C-0.66 4 -1.32 4 -2 4 C-2 3.34 -2 2.68 -2 2 C-1.34 2 -0.68 2 0 2 C0 1.34 0 0.68 0 0 Z " fill="#bdbdb5" transform="translate(16,14)"/>
<path d="M0 0 C0.66 0 1.32 0 2 0 C2 0.66 2 1.32 2 2 C2.66 2 3.32 2 4 2 C4 2.66 4 3.32 4 4 C3.34 4 2.68 4 2 4 C2 4.66 2 5.32 2 6 C1.34 6 0.68 6 0 6 C0 5.34 0 4.68 0 4 C-0.66 4 -1.32 4 -2 4 C-2 3.34 -2 2.68 -2 2 C-1.34 2 -0.68 2 0 2 C0 1.34 0 0.68 0 0 Z " fill="#bdbdb5" transform="translate(6,4)"/>
<path d="M0 0 C1.98 0 3.96 0 6 0 C6 0.66 6 1.32 6 2 C4.02 2 2.04 2 0 2 C0 1.34 0 0.68 0 0 Z " fill="#969696" transform="translate(14,6)"/>
</svg>
