<?xml version="1.0" encoding="UTF-8"?>
<svg version="1.1" xmlns="http://www.w3.org/2000/svg" width="25" height="25">
<path d="M0 0 C4.29 0 8.58 0 13 0 C13 6.27 13 12.54 13 19 C8.71 19 4.42 19 0 19 C0 12.73 0 6.46 0 0 Z M2 2 C2 2.33 2 2.66 2 3 C4.97 3 7.94 3 11 3 C11 2.67 11 2.34 11 2 C8.03 2 5.06 2 2 2 Z " fill="#969696" transform="translate(6,3)"/>
<path d="M0 0 C1.27423828 -0.00193359 1.27423828 -0.00193359 2.57421875 -0.00390625 C3.91419922 0.00189453 3.91419922 0.00189453 5.28125 0.0078125 C6.17457031 0.00394531 7.06789063 0.00007813 7.98828125 -0.00390625 C8.83777344 -0.00261719 9.68726563 -0.00132813 10.5625 0 C11.34689453 0.00112793 12.13128906 0.00225586 12.93945312 0.00341797 C14.78125 0.1328125 14.78125 0.1328125 15.78125 1.1328125 C15.88057153 2.82839976 15.91205007 4.52806997 15.9140625 6.2265625 C15.91599609 7.77150391 15.91599609 7.77150391 15.91796875 9.34765625 C15.91410156 10.43175781 15.91023438 11.51585937 15.90625 12.6328125 C15.91205078 14.25896484 15.91205078 14.25896484 15.91796875 15.91796875 C15.91667969 16.94792969 15.91539063 17.97789063 15.9140625 19.0390625 C15.91293457 19.99103516 15.91180664 20.94300781 15.91064453 21.92382812 C15.78125 24.1328125 15.78125 24.1328125 14.78125 25.1328125 C13.37776265 25.23141381 11.96944523 25.26360187 10.5625 25.265625 C9.28826172 25.26755859 9.28826172 25.26755859 7.98828125 25.26953125 C6.64830078 25.26373047 6.64830078 25.26373047 5.28125 25.2578125 C4.38792969 25.26167969 3.49460937 25.26554687 2.57421875 25.26953125 C1.72472656 25.26824219 0.87523437 25.26695313 0 25.265625 C-0.78439453 25.26449707 -1.56878906 25.26336914 -2.37695312 25.26220703 C-4.21875 25.1328125 -4.21875 25.1328125 -5.21875 24.1328125 C-5.31807153 22.43722524 -5.34955007 20.73755503 -5.3515625 19.0390625 C-5.35349609 17.49412109 -5.35349609 17.49412109 -5.35546875 15.91796875 C-5.35160156 14.83386719 -5.34773437 13.74976563 -5.34375 12.6328125 C-5.34761719 11.54871094 -5.35148438 10.46460938 -5.35546875 9.34765625 C-5.35417969 8.31769531 -5.35289063 7.28773437 -5.3515625 6.2265625 C-5.35043457 5.27458984 -5.34930664 4.32261719 -5.34814453 3.34179688 C-5.12085763 -0.53837651 -3.44405201 0.00495242 0 0 Z M-3.21875 3.1328125 C-3.31735131 4.53629985 -3.34953937 5.94461727 -3.3515625 7.3515625 C-3.35285156 8.20105469 -3.35414062 9.05054688 -3.35546875 9.92578125 C-3.35160156 10.81910156 -3.34773437 11.71242188 -3.34375 12.6328125 C-3.34761719 13.52613281 -3.35148438 14.41945313 -3.35546875 15.33984375 C-3.35417969 16.18933594 -3.35289063 17.03882813 -3.3515625 17.9140625 C-3.35043457 18.69845703 -3.34930664 19.48285156 -3.34814453 20.29101562 C-3.41982442 22.15034238 -3.41982442 22.15034238 -2.21875 23.1328125 C0.29261104 23.23256282 2.77028415 23.27163433 5.28125 23.2578125 C5.98378906 23.26167969 6.68632812 23.26554687 7.41015625 23.26953125 C10.88553808 23.57672181 10.88553808 23.57672181 13.78125 22.1328125 C13.87985131 20.72932515 13.91203937 19.32100773 13.9140625 17.9140625 C13.91535156 17.06457031 13.91664062 16.21507812 13.91796875 15.33984375 C13.91216797 13.99986328 13.91216797 13.99986328 13.90625 12.6328125 C13.91011719 11.73949219 13.91398437 10.84617187 13.91796875 9.92578125 C13.91667969 9.07628906 13.91539063 8.22679687 13.9140625 7.3515625 C13.91293457 6.56716797 13.91180664 5.78277344 13.91064453 4.97460938 C13.98232442 3.11528262 13.98232442 3.11528262 12.78125 2.1328125 C10.26988896 2.03306218 7.79221585 1.99399067 5.28125 2.0078125 C4.57871094 2.00394531 3.87617188 2.00007812 3.15234375 1.99609375 C-0.32303808 1.68890319 -0.32303808 1.68890319 -3.21875 3.1328125 Z " fill="#969696" transform="translate(7.21875,-0.1328125)"/>
</svg>
